<svg width="62" height="62" viewBox="0 0 62 62" fill="none" xmlns="http://www.w3.org/2000/svg">
<g clip-path="url(#clip0_40_426)">
<path d="M62.0001 10.6819L23.477 46.821L8.64355 32.7428L23.6011 39.9863L59.9663 10.771L62.0001 10.6819Z" fill="white"/>
<path d="M12.5873 19.2305L0.609375 12.9409L1.87456 11.0487L11.8246 16.2744C14.5737 12.8622 25.381 0.864774 41.6747 0.550293L41.7279 2.74642C24.4646 3.07138 13.344 18.1822 13.2317 18.3342L12.5873 19.2252V19.2305Z" fill="white"/>
<path d="M40.6574 43.2307H7.88672V44.7979H40.6574V43.2307Z" fill="white"/>
<path d="M40.6574 50.3484H7.88672V51.9156H40.6574V50.3484Z" fill="white"/>
<path d="M40.6574 21.8774H7.88672V23.4446H40.6574V21.8774Z" fill="white"/>
<path d="M40.6574 28.9951H7.88672V30.5623H40.6574V28.9951Z" fill="white"/>
<path d="M45.4699 22.3177V59.7986H2.47727V12.5426C14.8217 4.35032 25.9778 2.4215 33.1964 2.25378C39.3568 2.11226 43.7791 3.19198 45.464 3.68991V19.4821L47.9412 17.5533V2.19088L47.1844 1.90785C46.3153 1.58289 25.6526 -5.88605 0.478984 11.1222L-0.0117188 11.4524V62H47.9353V20.3365L45.4581 22.3177H45.4699Z" fill="white"/>
</g>
<defs>
<clipPath id="clip0_40_426">
<rect width="62" height="62" fill="white"/>
</clipPath>
</defs>
</svg>
