<svg width="63" height="56" viewBox="0 0 63 56" fill="none" xmlns="http://www.w3.org/2000/svg">
<g clip-path="url(#clip0_62_6)">
<path d="M63.0003 1.83486C39.2002 14.5207 26.6231 46.0348 26.6231 46.0348L11.541 28.4455L14.572 26.2416L25.8992 38.3843C25.8992 38.3843 37.8513 10.1972 59.6672 0C61.2088 0.927973 60.6151 0.284719 63.0003 1.83486Z" fill="white"/>
<path d="M42.0226 13.582C41.2466 14.4309 40.4862 15.2693 40.0696 15.7596C39.5072 16.4239 38.2208 18.0637 37.4917 19.0022C39.7467 22.7985 40.9133 27.5016 40.9133 32.1257C40.9133 42.3597 35.2731 52.9365 25.1021 52.9365C14.3061 52.9365 8.25453 41.1049 8.25453 30.7284C8.25453 20.352 13.8947 10.9616 24.1386 10.9616C28.8101 10.9616 32.5442 12.9335 35.2992 15.9969C35.7366 15.4011 36.3928 14.5838 37.3979 13.4555C38.1166 12.6488 38.7051 12.0003 39.1895 11.4835C35.5491 9.23215 30.9662 7.89819 25.5135 7.89819C8.80136 7.89819 0 20.2202 0 32.6107C0 45.0013 8.66074 55.9999 23.5814 55.9999C39.5332 55.9999 49.2303 43.1928 49.2303 30.3172C49.2303 23.7845 46.7357 17.7474 42.0226 13.5873V13.582Z" fill="white"/>
</g>
<defs>
<clipPath id="clip0_62_6">
<rect width="63" height="56" fill="white"/>
</clipPath>
</defs>
</svg>
