<svg width="271" height="53" viewBox="0 0 271 53" fill="none" xmlns="http://www.w3.org/2000/svg">
<path d="M24.2444 7.41455C38.7525 7.41455 46.7911 17.1509 46.7911 28.4564C46.7911 40.544 37.5744 52.5672 22.413 52.5672C8.23163 52.5672 0 42.1131 0 30.6096C0 19.1061 8.36527 7.41455 24.2444 7.41455ZM23.8534 49.6963C33.5254 49.6963 38.8812 39.7669 38.8812 30.1592C38.8812 20.5515 33.3274 10.2904 22.9377 10.2904C13.2013 10.2904 7.84059 19.3734 7.84059 28.8475C7.84059 38.3215 13.5923 49.6963 23.8534 49.6963Z" fill="#132E36"/>
<path d="M49.8006 49.9585C52.6121 49.6318 53.7209 48.0627 53.7209 45.7115V29.961C53.7209 27.2188 53.6565 25.5804 51.7607 25.5804H48.9492V23.6846C55.9434 22.4422 60.5814 20.5464 60.5814 20.5464L60.7744 20.7444C60.7744 20.7444 60.1854 22.5758 60.0567 28.3919C62.3435 25.125 66.6549 21.4671 72.0799 21.4671C76.5893 21.4671 79.7275 23.9519 79.7275 30.2877V45.7115C79.7275 47.6716 79.4008 49.1764 79.4008 49.1764L84.7615 49.8298L84.4991 51.5969L69.6644 51.9879V49.9634C72.2779 49.6367 73.065 48.0676 73.065 45.7164V32.1885C73.065 27.4168 71.4959 26.2387 68.8823 26.2387C66.2688 26.2387 62.8682 27.5455 60.3884 29.8323V45.7115C60.3884 47.6716 60.0617 49.1764 60.0617 49.1764L64.8333 49.8298L64.571 51.5969L49.8006 51.9879V49.9634V49.9585Z" fill="#132E36"/>
<path d="M99.8635 21.4673C105.615 21.4673 111.105 25.0609 111.367 32.6441C111.367 32.6441 109.08 33.4955 107.773 33.6885L92.5476 35.911L91.9585 36.698C92.4189 42.2518 95.2898 47.5481 102.348 47.5481C107.382 47.5481 110.521 44.6079 110.521 44.6079L111.238 46.2414C111.238 46.2414 107.773 52.5772 99.8041 52.5772C90.3944 52.5772 85.5583 45.3256 85.5583 37.6137C85.5583 28.6594 91.7011 21.4722 99.8684 21.4722L99.8635 21.4673ZM91.9585 33.2925L104.373 31.6591C104.373 31.6591 103.982 24.2095 98.6854 24.2095C94.7008 24.2095 92.3496 28.3921 91.9536 33.2925H91.9585Z" fill="#132E36"/>
<path d="M115.099 27.803C113.792 24.4717 111.436 24.0114 111.436 24.0114V22.2443H114.441C119.341 22.2443 122.153 21.9819 122.153 21.9819L122.415 22.2443C122.415 22.2443 121.108 24.9865 122.286 28.2584L127.058 41.0686C127.449 42.1774 127.84 43.6178 128.167 44.7909L133.592 32.1143C133.919 31.2629 134.181 29.9562 133.79 28.7187L133.463 27.803C132.156 24.4717 129.934 24.0114 129.934 24.0114V22.2443H132.81C137.646 22.2443 140.522 21.9819 140.522 21.9819L140.784 22.2443C140.784 22.2443 139.477 24.9865 140.655 28.2584L145.363 40.8063C145.754 41.915 146.214 43.4841 146.471 44.7266L153.332 28.7187C154.51 26.0359 152.55 24.6004 150.001 24.0114V22.2443H159.084L159.41 23.2887C159.41 23.2887 158.495 23.749 157.188 26.7536L145.947 52.6315L142.878 51.7801L135.755 33.8072L127.588 52.6265L124.514 51.7752L115.104 27.7931L115.099 27.803Z" fill="#132E36"/>
<path d="M175.552 21.4673C185.224 21.4673 190.58 27.6101 190.58 35.8417C190.58 44.0733 185.353 52.5722 174.636 52.5722C165.291 52.5722 159.737 46.1671 159.737 37.6731C159.737 29.9613 164.246 21.4673 175.552 21.4673ZM175.552 50.0924C181.106 50.0924 183.264 43.4249 183.264 37.4157C183.199 31.2086 180.843 23.9521 174.834 23.9521C169.409 23.9521 167.058 29.9019 167.058 36.0397C167.058 42.5092 169.543 50.0924 175.552 50.0924Z" fill="#132E36"/>
<path d="M193.134 49.9589C195.945 49.6322 197.054 48.0631 197.054 45.7119V30.0308C197.054 27.2885 196.99 25.6501 195.094 25.6501H192.282V23.7543C199.277 22.4476 203.979 20.5518 203.979 20.5518L204.172 20.7498C204.172 20.7498 203.583 22.5812 203.39 28.917C204.499 26.8282 208.226 21.4675 212.409 21.4675C214.433 21.4675 216.131 22.7742 216.131 24.8631C216.131 26.9519 214.695 28.4567 212.602 28.4567C210.84 28.4567 210.577 27.2786 209.008 27.2786C206.85 27.2786 204.499 29.4368 203.717 30.3475V45.707C203.717 47.6671 203.39 49.2362 203.39 49.2362L209.468 49.8253L209.206 51.5924L193.129 51.9834V49.9589H193.134Z" fill="#132E36"/>
<path d="M216.012 49.9587C218.888 49.632 219.932 48.0629 219.932 45.7117V12.6417C219.932 9.89947 219.868 8.26106 217.972 8.26106H215.359V6.36527C224.179 4.53382 227.055 3.22705 227.055 3.22705L227.253 3.42505C227.253 3.42505 226.6 5.84058 226.6 10.8746V34.2033H227.516L234.049 28.6496C235.228 27.6051 236.465 26.6251 236.465 25.5757C236.465 24.858 235.812 24.3976 234.376 24.0066V22.2395H246.597L246.924 23.2839C246.924 23.2839 242.806 24.462 240.064 26.8775L233.139 32.8916V33.6737C233.139 33.6737 233.658 34.4557 234.119 34.9161L243.464 45.8949C246.142 49.0331 246.865 49.4241 248.889 49.6221L249.607 49.6865L249.345 51.7803L238.885 51.9783C238.885 51.9783 238.103 49.6271 236.401 47.4689L227.516 36.6881H226.6V45.7068C226.6 47.6669 226.273 49.236 226.273 49.236L231.243 49.8251L230.981 51.5922L216.017 51.9832V49.9587H216.012Z" fill="#132E36"/>
<path d="M250.587 42.9002H252.676C253.067 48.4539 256.923 50.1567 259.932 50.1567C262.942 50.1567 264.768 48.5876 264.768 46.0384C264.768 39.3066 250.325 39.96 250.325 30.1592C250.325 24.8629 254.443 21.4673 261.175 21.4673C265.031 21.4673 269.669 22.6454 269.669 22.6454L268.298 29.7039H266.209C266.08 24.4768 262.155 23.8878 260.591 23.8878C257.517 23.8878 256.146 25.7192 256.146 27.8081C256.146 34.6042 270.52 33.2331 270.52 43.5585C270.52 49.439 265.882 52.5772 259.606 52.5772C256.21 52.5772 249.607 51.6615 249.607 48.0679C249.607 46.6324 250.587 42.9051 250.587 42.9051V42.9002Z" fill="#132E36"/>
<path d="M59.8785 1.7176C37.2527 13.6319 25.3037 43.2173 25.3037 43.2173L10.9689 26.7045L13.8497 24.6355L24.6157 36.035C24.6157 36.035 35.9706 9.57304 56.7106 0C58.1757 0.871176 57.6115 0.267293 59.8785 1.72255V1.7176Z" fill="#132E36"/>
<path d="M35.1242 18.478C35.1242 18.478 37.3071 15.6912 38.0792 14.7953C39.1088 13.5974 42.3708 10.1523 42.3708 10.1523L39.1732 9.18706C39.1732 9.18706 40.079 7.59321 35.54 12.6322C32.0553 16.498 32.867 16.5178 32.867 16.5178L35.1242 18.478Z" fill="white"/>
</svg>
