<svg width="87" height="82" viewBox="0 0 87 82" fill="none" xmlns="http://www.w3.org/2000/svg">
<path d="M18.032 52L17.972 51.32L16.832 51.12C16.452 51.06 16.392 50.9 16.332 50.62L14.272 39.24L12.412 39.7V40.28L8.01195 50.16C7.73195 50.78 7.55195 50.98 7.11195 51.12L6.17195 51.32L6.11195 52H10.452L10.392 51.32L9.31195 51.12C8.89195 51.02 8.85195 50.64 9.19195 49.76L10.152 47.48H14.072L14.592 50.64C14.632 50.88 14.592 51.1 14.272 51.16L13.092 51.32L13.032 52H18.032ZM13.932 46.66H10.492L12.912 40.96H13.012L13.932 46.66ZM20.6949 51.58C21.0949 51.98 21.6949 52.32 22.3949 52.32C23.3349 52.32 24.2549 51.84 25.0349 51.06C26.2349 49.84 27.1749 47.58 27.1749 45.56C27.1749 44.06 26.4749 42.74 25.4149 42.74C24.1949 42.74 22.8149 45.06 21.5549 47.46H21.3749C21.8749 45.8 22.5149 43.64 22.5149 43.4C22.5149 43.1 21.4549 42.76 21.0349 42.76C20.2749 42.76 19.0949 44.16 18.6349 45.1L18.9749 45.46L20.5149 43.86L21.1349 44L18.4949 55.68C18.4549 55.88 18.3549 56.02 18.0749 56.04L16.8149 56.24L16.7749 56.92H21.6749L21.6149 56.24L20.1349 56.04C19.8949 56.02 19.8149 55.88 19.8549 55.68L20.6549 51.58H20.6949ZM20.9149 50.26L21.2749 48.76C23.1749 45.42 24.1349 43.94 24.8149 43.94C25.4549 43.96 25.7749 44.86 25.7749 45.92C25.7749 47.7 24.7949 50.28 23.9349 51.14C23.6349 51.44 23.3149 51.62 23.0349 51.62C22.3749 51.62 21.4949 50.88 20.9149 50.26ZM30.1871 51.58C30.5871 51.98 31.1871 52.32 31.8871 52.32C32.8271 52.32 33.7471 51.84 34.5271 51.06C35.7271 49.84 36.6671 47.58 36.6671 45.56C36.6671 44.06 35.9671 42.74 34.9071 42.74C33.6871 42.74 32.3071 45.06 31.0471 47.46H30.8671C31.3671 45.8 32.0071 43.64 32.0071 43.4C32.0071 43.1 30.9471 42.76 30.5271 42.76C29.7671 42.76 28.5871 44.16 28.1271 45.1L28.4671 45.46L30.0071 43.86L30.6271 44L27.9871 55.68C27.9471 55.88 27.8471 56.02 27.5671 56.04L26.3071 56.24L26.2671 56.92H31.1671L31.1071 56.24L29.6271 56.04C29.3871 56.02 29.3071 55.88 29.3471 55.68L30.1471 51.58H30.1871ZM30.4071 50.26L30.7671 48.76C32.6671 45.42 33.6271 43.94 34.3071 43.94C34.9471 43.96 35.2671 44.86 35.2671 45.92C35.2671 47.7 34.2871 50.28 33.4271 51.14C33.1271 51.44 32.8071 51.62 32.5271 51.62C31.8671 51.62 30.9871 50.88 30.4071 50.26ZM41.6393 50.28L41.2993 49.92L39.6993 51.26L39.0993 51.08L41.9993 38.06L38.7993 38.86L38.7193 39.36L40.0993 39.8C40.2593 39.84 40.2793 39.98 40.2393 40.2L37.7993 51.66C37.7593 51.9 38.7593 52.3 39.1793 52.3C39.9393 52.3 41.1593 51.14 41.6393 50.28ZM47.5616 39.68C47.5616 39.1 47.2016 38.66 46.5816 38.66C46.0616 38.66 45.5616 39.22 45.5616 39.96C45.5616 40.54 45.9216 40.98 46.5616 40.98C47.0816 40.98 47.5616 40.42 47.5616 39.68ZM46.8616 50.28L46.5216 49.92L44.9216 51.26L44.3216 51.08L46.4416 43.4C46.5216 43.1 45.4016 42.76 44.9816 42.76C44.2216 42.76 43.0416 44.16 42.5816 45.1L42.9216 45.46L44.4616 43.86L45.0616 43.96L43.0216 51.66C42.9616 51.92 43.9816 52.3 44.3816 52.3C45.1416 52.3 46.3616 51.14 46.8616 50.28ZM53.2193 44.08C53.1393 44.2 53.0793 44.4 53.0793 44.62C53.0793 45.1 53.3393 45.36 53.8593 45.36C54.3993 45.36 54.7793 44.88 54.7793 44.3C54.7793 43.4 53.7793 42.76 52.6193 42.76C50.0793 42.76 47.8793 46.06 47.8793 49.2C47.8793 50.96 49.0193 52.3 50.5393 52.3C51.7393 52.3 52.7793 51.46 53.7593 50.32L53.4793 49.96C52.4793 50.72 51.6593 51.24 51.0793 51.24C50.1393 51.24 49.2793 50.46 49.2793 48.96C49.2793 47.04 50.2793 44.66 50.9993 43.94C51.1793 43.76 51.4593 43.54 51.5993 43.54C52.2393 43.54 53.0993 43.9 53.2193 44.08ZM61.5202 44.26C61.2802 43.66 60.8202 42.74 59.8802 42.74C59.0402 42.74 58.1202 43.3 57.4002 44.02C56.1602 45.26 55.1802 47.68 55.1802 49.72C55.1802 51.28 55.9202 52.3 57.0002 52.3C58.2602 52.3 59.5802 50.04 60.8402 47.74H61.0202C60.4402 49.56 59.8802 51.42 59.8802 51.66C59.8802 51.96 60.9002 52.3 61.3202 52.3C62.0802 52.3 63.3002 51.14 63.7802 50.28L63.4402 49.92L61.8602 51.26L61.2602 51.08L62.3202 46.32L63.3002 42.76H62.0602L61.6602 44.26H61.5202ZM61.3802 45.32L61.1002 46.48C59.2202 49.64 58.2802 51.12 57.5402 51.12C56.9202 51.12 56.5602 50.52 56.5602 49.36C56.5602 47.64 57.5402 44.78 58.2602 44.06C58.5202 43.8 58.7602 43.66 59.0602 43.66C59.9402 43.66 60.9202 44.66 61.3802 45.32ZM73.8138 50.28L73.4738 49.92L71.8738 51.26L71.2738 51.08C71.5138 50.4 71.8938 49.06 72.2738 47.78C72.7138 46.36 73.1138 44.82 73.1138 44.16C73.1138 43.36 72.3538 42.76 71.6138 42.76C71.1138 42.76 70.6738 42.98 70.2338 43.44C69.5538 44.16 68.5138 45.94 67.2938 48.5H67.0938C67.5138 46.86 68.3538 43.82 68.3538 43.4C68.3538 43.1 67.3138 42.76 66.9138 42.76C66.1538 42.76 64.9738 44.16 64.5138 45.1L64.8338 45.46L66.4138 43.92L66.9938 44.04L65.9338 49.06L65.2538 52L66.7138 52.1L67.1738 49.64C68.8138 46.32 70.2338 43.98 70.8338 43.98C71.3138 43.98 71.7938 44.42 71.7938 44.86C71.7938 45.32 71.3738 46.6 71.0138 47.82C70.5938 49.22 69.9738 51.12 69.9738 51.66C69.9738 51.96 70.9338 52.3 71.3338 52.3C72.0938 52.3 73.3338 51.14 73.8138 50.28ZM76.9896 42.78C76.9896 42.76 75.1896 43.34 75.1896 43.34L75.1296 43.92L76.7896 44L75.2296 51.74C75.1696 52 76.1696 52.3 76.5896 52.3C77.3496 52.3 78.5696 51.14 79.0696 50.28L78.7296 49.92L77.1296 51.26L76.5296 51.08L78.0296 43.94H80.7296L80.6696 43.04H78.2096L78.7496 40.3H77.4696L76.9896 42.78ZM33.4931 77L33.4331 76.32L32.1131 76.12C31.8531 76.08 31.7731 75.96 31.8131 75.76L33.1331 65.74C33.1731 65.56 33.3131 65.42 33.5331 65.38L34.9131 65.18L34.9731 64.5H29.8131L29.8731 65.18L31.1931 65.38C31.4731 65.42 31.5331 65.56 31.4931 65.74L30.1531 75.76C30.1131 75.96 30.0131 76.08 29.7531 76.12L28.3731 76.32L28.3131 77H33.4931ZM44.39 75.28L44.05 74.92L42.45 76.26L41.85 76.08C42.09 75.4 42.47 74.06 42.85 72.78C43.29 71.36 43.69 69.82 43.69 69.16C43.69 68.36 42.93 67.76 42.19 67.76C41.69 67.76 41.25 67.98 40.81 68.44C40.13 69.16 39.09 70.94 37.87 73.5H37.67C38.09 71.86 38.93 68.82 38.93 68.4C38.93 68.1 37.89 67.76 37.49 67.76C36.73 67.76 35.55 69.16 35.09 70.1L35.41 70.46L36.99 68.92L37.57 69.04L36.51 74.06L35.83 77L37.29 77.1L37.75 74.64C39.39 71.32 40.81 68.98 41.41 68.98C41.89 68.98 42.37 69.42 42.37 69.86C42.37 70.32 41.95 71.6 41.59 72.82C41.17 74.22 40.55 76.12 40.55 76.66C40.55 76.96 41.51 77.3 41.91 77.3C42.67 77.3 43.91 76.14 44.39 75.28ZM53.3058 64.54C53.3058 63.88 52.6258 63.24 51.5658 63.24C50.5458 63.24 49.7258 63.66 49.0858 64.32C48.2658 65.14 47.7658 66.58 47.5058 67.94L45.6058 68.36L45.5458 68.92L47.3458 69L46.0058 76.7C45.7458 78.14 45.3858 79.84 45.1258 80.42L43.9458 81.04C43.8658 80.34 43.4858 79.76 42.8458 79.76C42.3058 79.76 41.9458 80.18 41.9458 80.76C41.9458 81.42 42.5658 81.92 43.3658 81.92C44.1058 81.92 44.9058 81.62 45.4858 81C46.3658 80.06 47.0058 77.74 47.4458 75.24L48.5858 68.94H51.2058L51.1258 68.04H48.7458C48.9458 66.66 49.2658 65.46 49.6458 64.62L51.2658 64.26C51.4058 65.02 51.8058 65.56 52.4258 65.56C52.9458 65.56 53.3058 65.1 53.3058 64.54ZM58.3564 71.6C58.3564 69.5 57.4364 67.76 55.3964 67.76C52.8364 67.76 50.9764 70.86 50.9764 73.46C50.9764 75.56 51.8764 77.3 53.9364 77.3C56.4764 77.3 58.3564 74.2 58.3564 71.6ZM56.9764 71.04C56.9764 71.66 56.8764 72.42 56.7164 73.1C56.3964 74.38 55.4364 76.68 53.9764 76.68C52.7964 76.68 52.3364 75.22 52.3364 73.9C52.3364 73.28 52.4364 72.54 52.6164 71.86C52.9564 70.62 53.9564 68.38 55.3364 68.38C56.5164 68.38 56.9764 69.72 56.9764 71.04Z" fill="black"/>
<path d="M44 28C50.6274 28 56 22.6274 56 16C56 9.37258 50.6274 4 44 4C37.3726 4 32 9.37258 32 16C32 22.6274 37.3726 28 44 28Z" stroke="black" stroke-width="2" stroke-linecap="round" stroke-linejoin="round"/>
<path d="M43 15H44V22H45" stroke="black" stroke-width="2" stroke-linecap="round" stroke-linejoin="round"/>
<path d="M43.75 12C44.5784 12 45.25 11.3284 45.25 10.5C45.25 9.67157 44.5784 9 43.75 9C42.9216 9 42.25 9.67157 42.25 10.5C42.25 11.3284 42.9216 12 43.75 12Z" fill="black"/>
</svg>
