<svg width="87" height="86" viewBox="0 0 87 86" fill="none" xmlns="http://www.w3.org/2000/svg">
<path d="M27.3867 56L27.3267 55.32L26.1267 55.1C25.8467 55.06 25.7067 54.72 25.9667 52.38L26.7267 44.74C26.7467 44.54 26.8667 44.42 27.1267 44.38L28.5067 44.18L28.5667 43.5H24.7267L19.8867 53.46H19.7867L18.1667 43.5H14.0867L14.1467 44.18L15.5067 44.36C15.7267 44.4 15.8067 44.5 15.7667 44.7L14.5067 52.32C14.0867 54.94 13.8867 55.06 13.5867 55.1L12.2267 55.32L12.1667 56H16.6067L16.5467 55.32L15.2467 55.1C14.9667 55.06 14.9467 54.9 15.3667 52.32L16.6267 44.68H16.7267L18.5467 55.6H19.7067L25.0067 44.82H25.1067L24.3267 52.38C24.1067 54.58 23.9867 55.06 23.6667 55.1L22.3467 55.32L22.2867 56H27.3867ZM30.4028 52.52C34.5428 50.36 35.7228 49.82 35.7228 48.54C35.7228 47.6 34.9028 46.76 33.6228 46.76C31.2428 46.76 28.9828 49.98 28.9828 53.2C28.9828 54.96 30.1228 56.3 31.6428 56.3C32.8428 56.3 33.8828 55.46 34.8628 54.32L34.5828 53.96C33.5828 54.72 32.7628 55.24 32.1828 55.24C31.2428 55.24 30.3828 54.46 30.3828 52.96C30.3828 52.82 30.3828 52.66 30.4028 52.52ZM30.4228 51.92C30.7828 50 31.5028 48.52 32.0028 48C32.2028 47.8 32.5028 47.62 32.9228 47.62C33.4028 47.62 34.4028 48.02 34.4028 48.56C34.4028 49.56 33.6828 50.22 30.4628 51.94L30.4228 51.92ZM42.4066 48.18C42.4066 47.06 41.2866 46.76 40.0266 46.76C38.7266 46.76 37.0266 47.56 36.9066 49.18C36.8466 50.24 37.9266 51.28 38.6266 51.94C39.4466 52.68 40.2066 53.38 40.1666 54.12C40.1266 54.68 39.5866 55.36 39.0666 55.58C38.4266 55.54 37.6866 55.34 37.1866 55.12C37.2466 55 37.3066 54.82 37.3066 54.68C37.3066 54.26 37.0266 53.9 36.5866 53.9C36.0266 53.9 35.6466 54.3 35.6466 54.84C35.6466 55.92 36.7866 56.3 38.2066 56.3C39.5866 56.3 41.2666 55.38 41.3666 53.84C41.4466 52.8 40.3266 51.74 39.6466 51.08C38.7666 50.24 38.0666 49.62 38.1266 48.86C38.1466 48.28 38.6666 47.64 39.1866 47.48C39.7866 47.5 40.3866 47.7 40.8666 47.9C40.8066 48.04 40.7666 48.2 40.7666 48.36C40.7666 48.78 41.0466 49.14 41.4866 49.14C42.0266 49.14 42.4066 48.74 42.4066 48.18ZM49.2034 48.18C49.2034 47.06 48.0834 46.76 46.8234 46.76C45.5234 46.76 43.8234 47.56 43.7034 49.18C43.6434 50.24 44.7234 51.28 45.4234 51.94C46.2434 52.68 47.0034 53.38 46.9634 54.12C46.9234 54.68 46.3834 55.36 45.8634 55.58C45.2234 55.54 44.4834 55.34 43.9834 55.12C44.0434 55 44.1034 54.82 44.1034 54.68C44.1034 54.26 43.8234 53.9 43.3834 53.9C42.8234 53.9 42.4434 54.3 42.4434 54.84C42.4434 55.92 43.5834 56.3 45.0034 56.3C46.3834 56.3 48.0634 55.38 48.1634 53.84C48.2434 52.8 47.1234 51.74 46.4434 51.08C45.5634 50.24 44.8634 49.62 44.9234 48.86C44.9434 48.28 45.4634 47.64 45.9834 47.48C46.5834 47.5 47.1834 47.7 47.6634 47.9C47.6034 48.04 47.5634 48.2 47.5634 48.36C47.5634 48.78 47.8434 49.14 48.2834 49.14C48.8234 49.14 49.2034 48.74 49.2034 48.18ZM56.1003 48.26C55.8603 47.66 55.4003 46.74 54.4603 46.74C53.6203 46.74 52.7003 47.3 51.9803 48.02C50.7403 49.26 49.7603 51.68 49.7603 53.72C49.7603 55.28 50.5003 56.3 51.5803 56.3C52.8403 56.3 54.1603 54.04 55.4203 51.74H55.6003C55.0203 53.56 54.4603 55.42 54.4603 55.66C54.4603 55.96 55.4803 56.3 55.9003 56.3C56.6603 56.3 57.8803 55.14 58.3603 54.28L58.0203 53.92L56.4403 55.26L55.8403 55.08L56.9003 50.32L57.8803 46.76H56.6403L56.2403 48.26H56.1003ZM55.9603 49.32L55.6803 50.48C53.8003 53.64 52.8603 55.12 52.1203 55.12C51.5003 55.12 51.1403 54.52 51.1403 53.36C51.1403 51.64 52.1203 48.78 52.8403 48.06C53.1003 47.8 53.3403 47.66 53.6403 47.66C54.5203 47.66 55.5003 48.66 55.9603 49.32ZM67.6739 48.44L68.0539 47.12H66.0339C65.4939 46.98 64.7339 46.76 63.7339 46.76C61.6539 46.76 59.8339 48.28 59.8339 50.34C59.8339 51.36 60.3539 52.26 61.0539 52.76V52.86C60.0339 53.2 59.2539 53.78 59.2539 54.58C59.2539 55.2 59.6339 55.6 60.2139 55.92V56.02C59.1139 56.4 57.5739 57.28 57.5739 58.48C57.5739 60.08 59.2939 60.94 61.1939 60.94C64.3139 60.94 66.0939 59.56 66.0939 58.2C66.0939 56.84 64.7339 56.22 63.1339 55.68L62.2139 55.36C60.9339 54.9 60.5139 54.66 60.5139 54.12C60.5139 53.74 60.8939 53.24 61.5339 53.08C61.9539 53.24 62.3939 53.34 62.8539 53.34C64.3739 53.34 66.1939 51.92 66.1939 50.1C66.1939 49.3 65.8939 48.78 65.3339 48.14V47.98L67.6739 48.44ZM64.9939 49.2C64.9939 50.22 64.6539 51.38 63.9939 52.04C63.5539 52.48 63.0139 52.76 62.4539 52.76C62.1539 52.76 61.8939 52.6 61.7139 52.42C61.4339 52.14 61.1739 51.5 61.1539 50.7C61.1339 49.7 61.5539 48.58 62.1939 47.94C62.4339 47.72 62.6739 47.54 63.1539 47.54C63.9539 47.54 64.9939 48.34 64.9939 49.2ZM64.9139 58.58C64.9139 59.5 63.5939 60.18 62.0739 60.18C60.2139 60.18 58.8139 59.36 58.8139 58.26C58.8139 57.36 59.7739 56.7 60.7339 56.24C61.3739 56.5 62.0539 56.7 62.8339 56.98C63.9939 57.4 64.9139 57.82 64.9139 58.58ZM69.2895 52.52C73.4295 50.36 74.6095 49.82 74.6095 48.54C74.6095 47.6 73.7895 46.76 72.5095 46.76C70.1295 46.76 67.8695 49.98 67.8695 53.2C67.8695 54.96 69.0095 56.3 70.5295 56.3C71.7295 56.3 72.7695 55.46 73.7495 54.32L73.4695 53.96C72.4695 54.72 71.6495 55.24 71.0695 55.24C70.1295 55.24 69.2695 54.46 69.2695 52.96C69.2695 52.82 69.2695 52.66 69.2895 52.52ZM69.3095 51.92C69.6695 50 70.3895 48.52 70.8895 48C71.0895 47.8 71.3895 47.62 71.8095 47.62C72.2895 47.62 73.2895 48.02 73.2895 48.56C73.2895 49.56 72.5695 50.22 69.3495 51.94L69.3095 51.92ZM18.032 81L17.972 80.32L16.832 80.12C16.452 80.06 16.392 79.9 16.332 79.62L14.272 68.24L12.412 68.7V69.28L8.01195 79.16C7.73195 79.78 7.55195 79.98 7.11195 80.12L6.17195 80.32L6.11195 81H10.452L10.392 80.32L9.31195 80.12C8.89195 80.02 8.85195 79.64 9.19195 78.76L10.152 76.48H14.072L14.592 79.64C14.632 79.88 14.592 80.1 14.272 80.16L13.092 80.32L13.032 81H18.032ZM13.932 75.66H10.492L12.912 69.96H13.012L13.932 75.66ZM20.6949 80.58C21.0949 80.98 21.6949 81.32 22.3949 81.32C23.3349 81.32 24.2549 80.84 25.0349 80.06C26.2349 78.84 27.1749 76.58 27.1749 74.56C27.1749 73.06 26.4749 71.74 25.4149 71.74C24.1949 71.74 22.8149 74.06 21.5549 76.46H21.3749C21.8749 74.8 22.5149 72.64 22.5149 72.4C22.5149 72.1 21.4549 71.76 21.0349 71.76C20.2749 71.76 19.0949 73.16 18.6349 74.1L18.9749 74.46L20.5149 72.86L21.1349 73L18.4949 84.68C18.4549 84.88 18.3549 85.02 18.0749 85.04L16.8149 85.24L16.7749 85.92H21.6749L21.6149 85.24L20.1349 85.04C19.8949 85.02 19.8149 84.88 19.8549 84.68L20.6549 80.58H20.6949ZM20.9149 79.26L21.2749 77.76C23.1749 74.42 24.1349 72.94 24.8149 72.94C25.4549 72.96 25.7749 73.86 25.7749 74.92C25.7749 76.7 24.7949 79.28 23.9349 80.14C23.6349 80.44 23.3149 80.62 23.0349 80.62C22.3749 80.62 21.4949 79.88 20.9149 79.26ZM30.1871 80.58C30.5871 80.98 31.1871 81.32 31.8871 81.32C32.8271 81.32 33.7471 80.84 34.5271 80.06C35.7271 78.84 36.6671 76.58 36.6671 74.56C36.6671 73.06 35.9671 71.74 34.9071 71.74C33.6871 71.74 32.3071 74.06 31.0471 76.46H30.8671C31.3671 74.8 32.0071 72.64 32.0071 72.4C32.0071 72.1 30.9471 71.76 30.5271 71.76C29.7671 71.76 28.5871 73.16 28.1271 74.1L28.4671 74.46L30.0071 72.86L30.6271 73L27.9871 84.68C27.9471 84.88 27.8471 85.02 27.5671 85.04L26.3071 85.24L26.2671 85.92H31.1671L31.1071 85.24L29.6271 85.04C29.3871 85.02 29.3071 84.88 29.3471 84.68L30.1471 80.58H30.1871ZM30.4071 79.26L30.7671 77.76C32.6671 74.42 33.6271 72.94 34.3071 72.94C34.9471 72.96 35.2671 73.86 35.2671 74.92C35.2671 76.7 34.2871 79.28 33.4271 80.14C33.1271 80.44 32.8071 80.62 32.5271 80.62C31.8671 80.62 30.9871 79.88 30.4071 79.26ZM41.6393 79.28L41.2993 78.92L39.6993 80.26L39.0993 80.08L41.9993 67.06L38.7993 67.86L38.7193 68.36L40.0993 68.8C40.2593 68.84 40.2793 68.98 40.2393 69.2L37.7993 80.66C37.7593 80.9 38.7593 81.3 39.1793 81.3C39.9393 81.3 41.1593 80.14 41.6393 79.28ZM47.5616 68.68C47.5616 68.1 47.2016 67.66 46.5816 67.66C46.0616 67.66 45.5616 68.22 45.5616 68.96C45.5616 69.54 45.9216 69.98 46.5616 69.98C47.0816 69.98 47.5616 69.42 47.5616 68.68ZM46.8616 79.28L46.5216 78.92L44.9216 80.26L44.3216 80.08L46.4416 72.4C46.5216 72.1 45.4016 71.76 44.9816 71.76C44.2216 71.76 43.0416 73.16 42.5816 74.1L42.9216 74.46L44.4616 72.86L45.0616 72.96L43.0216 80.66C42.9616 80.92 43.9816 81.3 44.3816 81.3C45.1416 81.3 46.3616 80.14 46.8616 79.28ZM53.2193 73.08C53.1393 73.2 53.0793 73.4 53.0793 73.62C53.0793 74.1 53.3393 74.36 53.8593 74.36C54.3993 74.36 54.7793 73.88 54.7793 73.3C54.7793 72.4 53.7793 71.76 52.6193 71.76C50.0793 71.76 47.8793 75.06 47.8793 78.2C47.8793 79.96 49.0193 81.3 50.5393 81.3C51.7393 81.3 52.7793 80.46 53.7593 79.32L53.4793 78.96C52.4793 79.72 51.6593 80.24 51.0793 80.24C50.1393 80.24 49.2793 79.46 49.2793 77.96C49.2793 76.04 50.2793 73.66 50.9993 72.94C51.1793 72.76 51.4593 72.54 51.5993 72.54C52.2393 72.54 53.0993 72.9 53.2193 73.08ZM61.5202 73.26C61.2802 72.66 60.8202 71.74 59.8802 71.74C59.0402 71.74 58.1202 72.3 57.4002 73.02C56.1602 74.26 55.1802 76.68 55.1802 78.72C55.1802 80.28 55.9202 81.3 57.0002 81.3C58.2602 81.3 59.5802 79.04 60.8402 76.74H61.0202C60.4402 78.56 59.8802 80.42 59.8802 80.66C59.8802 80.96 60.9002 81.3 61.3202 81.3C62.0802 81.3 63.3002 80.14 63.7802 79.28L63.4402 78.92L61.8602 80.26L61.2602 80.08L62.3202 75.32L63.3002 71.76H62.0602L61.6602 73.26H61.5202ZM61.3802 74.32L61.1002 75.48C59.2202 78.64 58.2802 80.12 57.5402 80.12C56.9202 80.12 56.5602 79.52 56.5602 78.36C56.5602 76.64 57.5402 73.78 58.2602 73.06C58.5202 72.8 58.7602 72.66 59.0602 72.66C59.9402 72.66 60.9202 73.66 61.3802 74.32ZM73.8138 79.28L73.4738 78.92L71.8738 80.26L71.2738 80.08C71.5138 79.4 71.8938 78.06 72.2738 76.78C72.7138 75.36 73.1138 73.82 73.1138 73.16C73.1138 72.36 72.3538 71.76 71.6138 71.76C71.1138 71.76 70.6738 71.98 70.2338 72.44C69.5538 73.16 68.5138 74.94 67.2938 77.5H67.0938C67.5138 75.86 68.3538 72.82 68.3538 72.4C68.3538 72.1 67.3138 71.76 66.9138 71.76C66.1538 71.76 64.9738 73.16 64.5138 74.1L64.8338 74.46L66.4138 72.92L66.9938 73.04L65.9338 78.06L65.2538 81L66.7138 81.1L67.1738 78.64C68.8138 75.32 70.2338 72.98 70.8338 72.98C71.3138 72.98 71.7938 73.42 71.7938 73.86C71.7938 74.32 71.3738 75.6 71.0138 76.82C70.5938 78.22 69.9738 80.12 69.9738 80.66C69.9738 80.96 70.9338 81.3 71.3338 81.3C72.0938 81.3 73.3338 80.14 73.8138 79.28ZM76.9896 71.78C76.9896 71.76 75.1896 72.34 75.1896 72.34L75.1296 72.92L76.7896 73L75.2296 80.74C75.1696 81 76.1696 81.3 76.5896 81.3C77.3496 81.3 78.5696 80.14 79.0696 79.28L78.7296 78.92L77.1296 80.26L76.5296 80.08L78.0296 72.94H80.7296L80.6696 72.04H78.2096L78.7496 69.3H77.4696L76.9896 71.78Z" fill="black"/>
<path d="M32 12V25C32 25.2652 32.1054 25.5196 32.2929 25.7071C32.4804 25.8946 32.7348 26 33 26H55C55.2652 26 55.5196 25.8946 55.7071 25.7071C55.8946 25.5196 56 25.2652 56 25V12L44 4L32 12Z" stroke="black" stroke-width="2" stroke-linecap="round" stroke-linejoin="round"/>
<path d="M41.8125 19L32.3125 25.7125" stroke="black" stroke-width="2" stroke-linecap="round" stroke-linejoin="round"/>
<path d="M55.6875 25.7125L46.1875 19" stroke="black" stroke-width="2" stroke-linecap="round" stroke-linejoin="round"/>
<path d="M56 12L46.1875 19H41.8125L32 12" stroke="black" stroke-width="2" stroke-linecap="round" stroke-linejoin="round"/>
</svg>
