<svg width="87" height="86" viewBox="0 0 87 86" fill="none" xmlns="http://www.w3.org/2000/svg">
<path d="M25.3064 56L25.2464 55.32L24.4864 55.18C24.2664 55.12 24.0264 55.1 23.6464 54.34L21.4664 50.32C23.6064 49.76 25.0464 48.44 25.0464 46.46C25.0464 44.82 23.6864 43.5 20.9664 43.5H15.8064L15.8664 44.18L17.0464 44.38C17.3064 44.44 17.3864 44.56 17.3464 44.74L16.0264 54.76C15.9864 54.94 15.8864 55.08 15.6264 55.12L14.4064 55.32L14.3464 56H19.3464L19.2864 55.32L17.9864 55.12C17.7464 55.08 17.6464 54.94 17.6864 54.76L18.2664 50.44L19.8664 50.5L21.8864 54.62L22.5464 56H25.3064ZM23.2064 46.78C23.2064 48.56 21.9264 49.6 20.1064 49.84L18.3864 49.58L19.0664 44.26L20.1264 44.24C22.1064 44.2 23.2064 45.22 23.2064 46.78ZM27.727 52.52C31.867 50.36 33.047 49.82 33.047 48.54C33.047 47.6 32.227 46.76 30.947 46.76C28.567 46.76 26.307 49.98 26.307 53.2C26.307 54.96 27.447 56.3 28.967 56.3C30.167 56.3 31.207 55.46 32.187 54.32L31.907 53.96C30.907 54.72 30.087 55.24 29.507 55.24C28.567 55.24 27.707 54.46 27.707 52.96C27.707 52.82 27.707 52.66 27.727 52.52ZM27.747 51.92C28.107 50 28.827 48.52 29.327 48C29.527 47.8 29.827 47.62 30.247 47.62C30.727 47.62 31.727 48.02 31.727 48.56C31.727 49.56 31.007 50.22 27.787 51.94L27.747 51.92ZM47.5661 54.28L47.2261 53.92L45.6461 55.26L45.0461 55.08C45.1861 54.62 45.6661 53.06 46.0261 51.78C46.4661 50.36 46.8861 48.82 46.8861 48.16C46.8861 47.36 46.1261 46.76 45.3861 46.76C44.8861 46.76 44.4461 46.98 44.0061 47.44C43.3261 48.16 42.2661 49.92 41.0461 52.5H40.8661C41.2661 51.16 41.9661 48.86 41.9661 48.22C41.9661 47.36 41.3861 46.76 40.6661 46.76C40.1461 46.76 39.7261 46.98 39.2861 47.44C38.6061 48.16 37.5861 49.92 36.3661 52.5H36.1661C36.5861 50.86 37.4261 47.82 37.4261 47.4C37.4261 47.1 36.4061 46.76 35.9861 46.76C35.2261 46.76 34.0461 48.16 33.5861 49.1L33.9261 49.46L35.4861 47.86L36.0861 47.96L35.0061 53.06L34.3261 56L35.7861 56.1L36.2461 53.64C37.8861 50.32 39.2861 47.98 39.8861 47.98C40.3661 47.98 40.8461 48.42 40.8461 48.86C40.8461 49.32 40.3861 50.68 40.0661 51.82L38.8861 56L40.3661 56.1L40.9261 53.64C42.5661 50.32 44.0061 47.98 44.6061 47.98C45.0861 47.98 45.5661 48.42 45.5661 48.86C45.5661 49.32 45.1461 50.6 44.7661 51.82C44.3461 53.22 43.7261 55.2 43.7261 55.66C43.7261 55.96 44.6861 56.3 45.1061 56.3C45.8661 56.3 47.0861 55.14 47.5661 54.28ZM56.1689 50.6C56.1689 48.5 55.2489 46.76 53.2089 46.76C50.6489 46.76 48.7889 49.86 48.7889 52.46C48.7889 54.56 49.6889 56.3 51.7489 56.3C54.2889 56.3 56.1689 53.2 56.1689 50.6ZM54.7889 50.04C54.7889 50.66 54.6889 51.42 54.5289 52.1C54.2089 53.38 53.2489 55.68 51.7889 55.68C50.6089 55.68 50.1489 54.22 50.1489 52.9C50.1489 52.28 50.2489 51.54 50.4289 50.86C50.7689 49.62 51.7689 47.38 53.1489 47.38C54.3289 47.38 54.7889 48.72 54.7889 50.04ZM63.2347 52.56C64.7747 50.38 65.5747 49.1 65.5547 48.14C65.5747 47.18 64.9347 46.74 64.2747 46.74C63.6547 46.74 63.1747 47.12 63.0147 47.92C63.7147 48.06 64.1747 48.42 64.1947 48.96C64.1947 49.48 63.8947 50.22 63.2747 51.18L60.8747 55.04H60.7347L60.8347 47.46C60.8347 47.14 59.8147 46.76 59.3947 46.76C58.6347 46.76 57.4747 48.2 57.0147 49.14L57.3547 49.5L58.8947 47.9L59.4747 48.02V56.3L60.9147 56L63.2347 52.56ZM67.6098 52.52C71.7498 50.36 72.9298 49.82 72.9298 48.54C72.9298 47.6 72.1098 46.76 70.8298 46.76C68.4498 46.76 66.1898 49.98 66.1898 53.2C66.1898 54.96 67.3298 56.3 68.8498 56.3C70.0498 56.3 71.0898 55.46 72.0698 54.32L71.7898 53.96C70.7898 54.72 69.9698 55.24 69.3898 55.24C68.4498 55.24 67.5898 54.46 67.5898 52.96C67.5898 52.82 67.5898 52.66 67.6098 52.52ZM67.6298 51.92C67.9898 50 68.7098 48.52 69.2098 48C69.4098 47.8 69.7098 47.62 70.1298 47.62C70.6098 47.62 71.6098 48.02 71.6098 48.56C71.6098 49.56 70.8898 50.22 67.6698 51.94L67.6298 51.92ZM16.8409 68.54C16.8409 67.88 16.1609 67.24 15.1009 67.24C14.0809 67.24 13.2609 67.66 12.6209 68.32C11.8009 69.14 11.3009 70.58 11.0409 71.94L9.14094 72.36L9.08094 72.92L10.8809 73L9.54094 80.7C9.28094 82.14 8.92094 83.84 8.66094 84.42L7.48094 85.04C7.40094 84.34 7.02094 83.76 6.38094 83.76C5.84094 83.76 5.48094 84.18 5.48094 84.76C5.48094 85.42 6.10094 85.92 6.90094 85.92C7.64094 85.92 8.44094 85.62 9.02094 85C9.90094 84.06 10.5409 81.74 10.9809 79.24L12.1209 72.94H14.7409L14.6609 72.04H12.2809C12.4809 70.66 12.8009 69.46 13.1809 68.62L14.8009 68.26C14.9409 69.02 15.3409 69.56 15.9609 69.56C16.4809 69.56 16.8409 69.1 16.8409 68.54ZM20.4916 72.98C20.2916 73.7 20.6916 74.1 21.2516 74.1C21.7916 74.1 22.1916 73.62 22.1916 72.96C22.1916 72.3 21.6916 71.76 20.9916 71.76C20.2916 71.76 19.9916 72.02 19.3116 72.88C18.7116 73.64 17.5116 76.14 17.0116 77.5H16.7516C17.2116 75.86 18.0316 72.82 18.0316 72.4C18.0316 72.1 17.0116 71.76 16.5916 71.76C15.8316 71.76 14.6516 73.16 14.1916 74.1L14.5316 74.46L16.0716 72.86L16.6716 72.96L15.6116 78.06L14.9316 81L16.3916 81.1L16.8516 78.64C17.4916 77.24 19.5516 73.38 20.1516 72.86C20.2116 72.82 20.4916 72.98 20.4916 72.98ZM29.6455 75.6C29.6455 73.5 28.7255 71.76 26.6855 71.76C24.1255 71.76 22.2655 74.86 22.2655 77.46C22.2655 79.56 23.1655 81.3 25.2255 81.3C27.7655 81.3 29.6455 78.2 29.6455 75.6ZM28.2655 75.04C28.2655 75.66 28.1655 76.42 28.0055 77.1C27.6855 78.38 26.7255 80.68 25.2655 80.68C24.0855 80.68 23.6255 79.22 23.6255 77.9C23.6255 77.28 23.7255 76.54 23.9055 75.86C24.2455 74.62 25.2455 72.38 26.6255 72.38C27.8055 72.38 28.2655 73.72 28.2655 75.04ZM44.6559 79.28L44.3159 78.92L42.7359 80.26L42.1359 80.08C42.2759 79.62 42.7559 78.06 43.1159 76.78C43.5559 75.36 43.9759 73.82 43.9759 73.16C43.9759 72.36 43.2159 71.76 42.4759 71.76C41.9759 71.76 41.5359 71.98 41.0959 72.44C40.4159 73.16 39.3559 74.92 38.1359 77.5H37.9559C38.3559 76.16 39.0559 73.86 39.0559 73.22C39.0559 72.36 38.4759 71.76 37.7559 71.76C37.2359 71.76 36.8159 71.98 36.3759 72.44C35.6959 73.16 34.6759 74.92 33.4559 77.5H33.2559C33.6759 75.86 34.5159 72.82 34.5159 72.4C34.5159 72.1 33.4959 71.76 33.0759 71.76C32.3159 71.76 31.1359 73.16 30.6759 74.1L31.0159 74.46L32.5759 72.86L33.1759 72.96L32.0959 78.06L31.4159 81L32.8759 81.1L33.3359 78.64C34.9759 75.32 36.3759 72.98 36.9759 72.98C37.4559 72.98 37.9359 73.42 37.9359 73.86C37.9359 74.32 37.4759 75.68 37.1559 76.82L35.9759 81L37.4559 81.1L38.0159 78.64C39.6559 75.32 41.0959 72.98 41.6959 72.98C42.1759 72.98 42.6559 73.42 42.6559 73.86C42.6559 74.32 42.2359 75.6 41.8559 76.82C41.4359 78.22 40.8159 80.2 40.8159 80.66C40.8159 80.96 41.7759 81.3 42.1959 81.3C42.9559 81.3 44.1759 80.14 44.6559 79.28ZM60.0095 77.02H59.0695L58.1295 79.4C57.8295 80.16 57.5495 80.26 53.7295 80.26H53.3295L54.7095 69.74C54.7495 69.56 54.8295 69.42 55.1095 69.38L56.5295 69.18L56.5895 68.5H51.4895L51.5495 69.18L52.7495 69.38C52.9895 69.42 53.0895 69.56 53.0495 69.74L51.7295 79.76C51.6895 79.94 51.5895 80.08 51.3295 80.12L50.0895 80.32L50.0295 81H59.0495L60.0095 77.02ZM66.1261 68.68C66.1261 68.1 65.7661 67.66 65.1461 67.66C64.6261 67.66 64.1261 68.22 64.1261 68.96C64.1261 69.54 64.4861 69.98 65.1261 69.98C65.6461 69.98 66.1261 69.42 66.1261 68.68ZM65.4261 79.28L65.0861 78.92L63.4861 80.26L62.8861 80.08L65.0061 72.4C65.0861 72.1 63.9661 71.76 63.5461 71.76C62.7861 71.76 61.6061 73.16 61.1461 74.1L61.4861 74.46L63.0261 72.86L63.6261 72.96L61.5861 80.66C61.5261 80.92 62.5461 81.3 62.9461 81.3C63.7061 81.3 64.9261 80.14 65.4261 79.28ZM72.5238 73.18C72.5238 72.06 71.4038 71.76 70.1438 71.76C68.8438 71.76 67.1438 72.56 67.0238 74.18C66.9638 75.24 68.0438 76.28 68.7438 76.94C69.5638 77.68 70.3238 78.38 70.2838 79.12C70.2438 79.68 69.7038 80.36 69.1838 80.58C68.5438 80.54 67.8038 80.34 67.3038 80.12C67.3638 80 67.4238 79.82 67.4238 79.68C67.4238 79.26 67.1438 78.9 66.7038 78.9C66.1438 78.9 65.7637 79.3 65.7637 79.84C65.7637 80.92 66.9038 81.3 68.3238 81.3C69.7038 81.3 71.3838 80.38 71.4838 78.84C71.5638 77.8 70.4438 76.74 69.7638 76.08C68.8838 75.24 68.1838 74.62 68.2438 73.86C68.2638 73.28 68.7837 72.64 69.3038 72.48C69.9038 72.5 70.5038 72.7 70.9837 72.9C70.9238 73.04 70.8838 73.2 70.8838 73.36C70.8838 73.78 71.1638 74.14 71.6038 74.14C72.1438 74.14 72.5238 73.74 72.5238 73.18ZM75.2806 71.78C75.2806 71.76 73.4806 72.34 73.4806 72.34L73.4206 72.92L75.0806 73L73.5206 80.74C73.4606 81 74.4606 81.3 74.8806 81.3C75.6406 81.3 76.8606 80.14 77.3606 79.28L77.0206 78.92L75.4206 80.26L74.8206 80.08L76.3206 72.94H79.0206L78.9606 72.04H76.5006L77.0406 69.3H75.7606L75.2806 71.78Z" fill="black"/>
<path d="M48 12L40 20" stroke="black" stroke-width="2" stroke-linecap="round" stroke-linejoin="round"/>
<path d="M48 20L40 12" stroke="black" stroke-width="2" stroke-linecap="round" stroke-linejoin="round"/>
<path d="M54 5H34C33.4477 5 33 5.44772 33 6V26C33 26.5523 33.4477 27 34 27H54C54.5523 27 55 26.5523 55 26V6C55 5.44772 54.5523 5 54 5Z" stroke="black" stroke-width="2" stroke-linecap="round" stroke-linejoin="round"/>
</svg>
